<svg width="1480" height="1479" viewBox="0 0 1480 1479" fill="none" xmlns="http://www.w3.org/2000/svg">
<path d="M129.578 430.121L163.418 446.901L162.376 448.935L161.856 449.952L160.815 451.986L159.773 454.019L149.361 475.884L143.114 490.121L133.742 513.511L126.454 533.85L115 571.477L109.794 591.816L103.547 621.308L100.423 640.121L62.4177 633.511L66.0621 611.138L71.7889 584.189L80.1188 552.155L88.4487 525.714L100.423 494.189L112.918 463.68L129.578 430.121Z" fill="#EE5622"/>
<path d="M62.7511 843.011L99.9913 836.696L100.344 838.953L100.521 840.082L100.874 842.339L101.227 844.597L105.655 868.406L108.969 883.596L115.136 908.027L121.194 928.766L134.045 965.939L141.788 985.454L154.068 1012.98L162.599 1030.04L127.967 1047.03L117.765 1026.79L106.558 1001.62L94.4679 970.81L85.6655 944.523L76.8226 911.98L68.9988 879.954L62.7511 843.011Z" fill="#EE5622"/>
<path d="M252.171 1221.3L278.587 1194.31L280.199 1195.93L281.006 1196.73L282.618 1198.35L284.231 1199.97L301.808 1216.63L313.418 1226.97L332.767 1243.11L349.858 1256.33L382.104 1278.85L399.839 1290.09L425.956 1305.14L442.884 1313.93L424.853 1348.03L404.701 1337.65L380.841 1323.87L352.949 1306.05L330.376 1289.96L304.094 1268.83L278.94 1247.52L252.171 1221.3Z" fill="#EE5622"/>
<path d="M1050.79 1349.9L1033.28 1316.44L1035.32 1315.41L1036.34 1314.89L1038.38 1313.86L1040.41 1312.82L1061.69 1301.25L1075.11 1293.41L1096.44 1279.99L1114.29 1267.82L1145.68 1244.11L1161.84 1230.72L1184.23 1210.53L1197.82 1197.15L1224.68 1224.83L1208.58 1240.79L1188.11 1259.23L1162.54 1280.25L1140.26 1296.74L1112.04 1315.21L1084 1332.55L1050.79 1349.9Z" fill="#EE5622"/>
<path d="M631.62 1415.28L637.113 1378.4L639.346 1378.76L640.463 1378.93L642.696 1379.29L644.929 1379.64L668.7 1382.72L684.016 1384.22L708.906 1385.85L730.287 1386.46L769.224 1385.69L789.97 1384.35L819.656 1381.18L838.331 1378.35L843.688 1416.03L821.502 1419.46L794.369 1422.34L761.654 1424.33L734.207 1424.6L700.86 1423.02L668.312 1420.64L631.62 1415.28Z" fill="#EE5622"/>
<path d="M1348.26 1053.12L1314.42 1036.34L1315.46 1034.31L1315.98 1033.29L1317.02 1031.26L1318.06 1029.22L1328.47 1007.36L1334.72 993.121L1344.09 969.731L1351.38 949.392L1362.84 911.765L1368.04 891.426L1374.29 861.935L1377.41 843.121L1415.42 849.731L1411.77 872.104L1406.05 899.053L1397.72 931.087L1389.39 957.528L1377.41 989.053L1364.92 1019.56L1348.26 1053.12Z" fill="#EE5622"/>
<path d="M1415.23 629.49L1377.99 635.805L1377.64 633.548L1377.46 632.419L1377.11 630.162L1376.75 627.904L1372.33 604.095L1369.01 588.905L1362.85 564.474L1356.79 543.735L1343.94 506.562L1336.19 487.047L1323.91 459.516L1315.38 442.459L1350.01 425.468L1360.22 445.71L1371.42 470.879L1383.51 501.691L1392.32 527.978L1401.16 560.521L1408.98 592.547L1415.23 629.49Z" fill="#EE5622"/>
<path d="M1220.61 252.815L1194.55 279.226L1192.95 277.633L1192.15 276.837L1190.55 275.243L1188.95 273.65L1171.5 257.251L1159.99 247.07L1140.79 231.175L1123.84 218.155L1091.86 195.961L1074.28 184.882L1048.39 170.032L1031.62 161.361L1049.36 127.955L1069.33 138.2L1092.98 151.787L1120.63 169.357L1143.01 185.216L1169.08 206.027L1194.04 227.013L1220.61 252.815Z" fill="#EE5622"/>
<path d="M844.801 63.4404L839.21 100.598L836.954 100.244L835.826 100.066L833.57 99.7121L831.314 99.3577L807.299 96.2864L791.825 94.7898L766.678 93.174L745.074 92.5815L705.731 93.4033L684.767 94.7779L654.768 98.0006L635.896 100.87L630.525 62.925L652.947 59.4457L680.365 56.5178L713.423 54.4757L741.156 54.1641L774.849 55.7218L807.734 58.0859L844.801 63.4404Z" fill="#EE5622"/>
<path d="M426.733 131.871L444.453 165.343L442.419 166.362L441.402 166.872L439.368 167.891L437.334 168.91L416.104 180.327L402.714 188.076L381.44 201.333L363.641 213.369L332.363 236.836L316.257 250.102L293.961 270.107L280.439 283.378L253.397 255.616L269.42 239.793L289.808 221.523L315.281 200.705L337.489 184.381L365.628 166.125L393.597 148.993L426.733 131.871Z" fill="#EE5622"/>
<path d="M353.578 563.778L361.209 548.383L395.495 565.832L393.795 571.063L389.6 580.74L385.095 591.368L379.806 602.793L375.325 616.583L369.299 635.129L365.318 652.236L359.994 679.947L320.573 673.447L323.14 657.457L327.894 637.973L333.277 618.167L339.303 599.622L347.053 579.007L353.578 563.778Z" fill="#EE5622"/>
<path d="M323.458 819.949L320.582 803.008L358.576 796.972L360.276 802.203L362.569 812.498L365.172 823.744L367.608 836.096L372.089 849.886L378.115 868.432L384.949 884.612L396.93 910.16L361.218 928.072L353.896 913.628L346.289 895.07L339.003 875.882L332.977 857.337L327.13 836.105L323.458 819.949Z" fill="#EE5622"/>
<path d="M449.803 1048.96L437.516 1036.94L464.707 1009.73L469.158 1012.96L477.067 1019.94L485.785 1027.51L495.019 1036.08L506.753 1044.6L522.533 1056.07L537.576 1065.14L562.292 1078.77L543.93 1114.26L529.513 1106.87L512.446 1096.33L495.269 1085.08L479.489 1073.62L462.274 1059.87L449.803 1048.96Z" fill="#EE5622"/>
<path d="M688.936 1161.5L671.932 1159L677.933 1121H683.435L693.938 1122L705.441 1123L717.944 1124.5H732.448H751.953L769.458 1123L797.465 1119.5L803.467 1159L787.462 1161.5L767.457 1163L746.952 1164H727.446L705.441 1163L688.936 1161.5Z" fill="#EE5622"/>
<path d="M945.535 1110.84L930.208 1118.9L912.84 1084.71L917.325 1081.45L926.473 1076.03L936.436 1070.03L947.508 1063.83L959.331 1055.24L975.232 1043.69L988.623 1032.11L1009.4 1012.7L1037.44 1040.99L1025.85 1052.49L1010.42 1065.55L994.294 1078.5L978.393 1090.05L959.868 1102.28L945.535 1110.84Z" fill="#EE5622"/>
<path d="M1125.51 917.638L1117.88 933.033L1083.59 915.584L1085.29 910.353L1089.49 900.676L1093.99 890.048L1099.28 878.623L1103.76 864.833L1109.79 846.287L1113.77 829.18L1119.09 801.469L1158.52 807.969L1155.95 823.959L1151.19 843.443L1145.81 863.249L1139.79 881.794L1132.04 902.409L1125.51 917.638Z" fill="#EE5622"/>
<path d="M1153.94 652.633L1156.83 669.5L1119.46 675.359L1117.76 670.147L1115.47 659.894L1112.86 648.694L1110.41 636.395L1105.95 622.656L1099.95 604.179L1093.16 588.053L1081.26 562.586L1116.35 544.901L1123.61 559.302L1131.17 577.797L1138.42 596.917L1144.42 615.394L1150.26 636.543L1153.94 652.633Z" fill="#EE5622"/>
<path d="M1023.48 425.699L1035.73 437.635L1008.94 464.346L1004.51 461.128L996.633 454.188L987.948 446.663L978.747 438.156L967.068 429.671L951.363 418.26L936.401 409.212L911.826 395.611L929.818 360.684L944.15 368.059L961.125 378.57L978.214 389.77L993.92 401.181L1011.06 414.851L1023.48 425.699Z" fill="#EE5622"/>
<path d="M786.949 318.533L803.983 320.991L797.971 358.348L792.46 358.348L781.939 357.365L770.416 356.382L757.891 354.907L743.361 354.907L723.822 354.907L706.287 356.382L678.23 359.822L672.218 320.991L688.25 318.533L708.291 317.059L728.832 316.076L748.371 316.076L770.416 317.059L786.949 318.533Z" fill="#EE5622"/>
<path d="M529.309 371.429L544.34 363.545L561.503 397.252L557.107 400.445L548.137 405.747L538.368 411.63L527.51 417.695L515.921 426.115L500.336 437.439L487.216 448.794L466.86 467.837L439.24 439.905L450.583 428.626L465.701 415.82L481.508 403.12L497.093 391.797L515.254 379.817L529.309 371.429Z" fill="#EE5622"/>
<path d="M63.4479 632.508L100.556 637.936L100.196 640.172L100.015 641.291L99.6543 643.527L99.2935 645.764L96.1525 669.568L94.6104 684.904L92.9203 709.826L92.2631 731.234L92.9657 770.214L94.2759 790.982L97.4054 820.696L100.216 839.387L62.2869 844.823L58.8783 822.617L56.0355 795.459L54.0949 762.71L53.8671 735.232L55.525 701.843L57.9862 669.252L63.4479 632.508Z" fill="#14A76C"/>
<path d="M128.631 1047.32L161.842 1029.89L162.865 1031.92L163.376 1032.93L164.399 1034.95L165.422 1036.97L176.872 1058.07L184.639 1071.39L197.921 1092.54L209.972 1110.25L233.453 1141.37L246.72 1157.4L266.717 1179.6L279.977 1193.07L252.487 1219.76L236.677 1203.8L218.414 1183.5L197.595 1158.15L181.259 1136.05L162.975 1108.07L145.81 1080.25L128.631 1047.32Z" fill="#14A76C"/>
<path d="M1223.39 1225.44L1196.59 1199.14L1198.2 1197.53L1199 1196.73L1200.61 1195.12L1202.22 1193.51L1218.8 1175.98L1229.08 1164.39L1245.14 1145.09L1258.29 1128.05L1280.71 1095.89L1291.89 1078.2L1306.88 1052.15L1315.63 1035.28L1349.49 1053.21L1339.16 1073.3L1325.45 1097.1L1307.71 1124.91L1291.69 1147.43L1270.67 1173.64L1249.47 1198.73L1223.39 1225.44Z" fill="#14A76C"/>
<path d="M844.083 1416.6L837.634 1379.21L839.893 1378.87L841.022 1378.69L843.281 1378.35L845.54 1378L869.359 1373.64L884.554 1370.37L908.989 1364.26L929.729 1358.26L966.898 1345.49L986.407 1337.79L1013.93 1325.56L1030.97 1317.06L1048.1 1351.86L1027.87 1362.03L1002.71 1373.19L971.909 1385.21L945.624 1393.95L913.077 1402.71L881.043 1410.46L844.083 1416.6Z" fill="#14A76C"/>
<path d="M425.685 1348.47L442.598 1314.29L444.648 1315.35L445.673 1315.87L447.723 1316.92L449.773 1317.97L471.811 1328.49L486.161 1334.8L509.736 1344.27L530.237 1351.63L568.162 1363.19L588.662 1368.45L618.388 1374.76L637.351 1377.92L630.688 1416.3L608.138 1412.62L580.975 1406.84L548.687 1398.42L522.036 1390.01L490.261 1377.92L459.511 1365.3L425.685 1348.47Z" fill="#14A76C"/>
<path d="M1415.79 846.028L1378.6 840.331L1378.95 838.062L1379.12 836.928L1379.47 834.659L1379.82 832.389L1382.85 808.236L1384.32 792.671L1385.88 767.375L1386.44 745.642L1385.54 706.059L1384.12 684.966L1380.84 654.78L1377.93 635.787L1415.89 630.457L1419.42 653.021L1422.4 680.61L1424.51 713.873L1424.87 741.774L1423.38 775.667L1421.08 808.746L1415.79 846.028Z" fill="#14A76C"/>
<path d="M1348.82 423.713L1315.09 444.023L1314.04 441.987L1313.51 440.969L1312.45 438.932L1311.4 436.896L1299.61 415.692L1291.61 402.35L1277.95 381.212L1265.56 363.584L1241.45 332.746L1227.84 316.939L1207.33 295.156L1193.74 282.014L1221.58 252.435L1237.78 268.002L1256.51 287.923L1277.88 312.933L1294.66 334.849L1313.46 362.765L1331.11 390.574L1348.82 423.713Z" fill="#14A76C"/>
<path d="M1046.54 125.549L1031.45 161.562L1029.43 160.541L1028.42 160.03L1026.4 159.009L1024.39 157.987L1002.72 147.825L988.638 141.766L965.529 132.746L945.466 125.803L908.424 115.086L888.437 110.325L859.503 104.784L841.077 102.152L846.121 62.1226L868.031 65.179L894.47 70.261L925.954 77.8965L951.995 85.7221L983.117 97.1918L1013.27 109.241L1046.54 125.549Z" fill="#14A76C"/>
<path d="M627.882 62.5491L637.382 101.487L635.115 101.832L633.981 102.004L631.715 102.349L629.448 102.693L605.598 107.062L590.422 110.36L566.084 116.537L545.492 122.64L508.745 135.659L489.537 143.533L462.55 156.059L445.908 164.782L425.766 128.453L445.511 118.019L470.183 106.589L500.522 94.2966L526.531 85.388L558.899 76.5038L590.825 68.6777L627.882 62.5491Z" fill="#14A76C"/>
<path d="M254.807 256.661L281.846 282.983L280.231 284.583L279.423 285.384L277.808 286.984L276.193 288.585L259.572 306.035L249.256 317.562L233.157 336.776L219.976 353.749L197.524 385.777L186.324 403.394L171.323 429.341L162.572 446.159L128.448 428.163L138.787 408.141L152.512 384.436L170.275 356.73L186.32 334.311L207.394 308.212L228.651 283.235L254.807 256.661Z" fill="#14A76C"/>
<path d="M368.217 944.598L360.244 929.371L394.514 911.891L397.748 916.341L403.112 925.426L409.065 935.32L415.2 946.317L423.726 958.051L435.19 973.831L446.693 987.111L465.987 1007.71L437.558 1035.79L426.129 1024.31L413.156 1009L400.295 993.002L388.83 977.222L376.704 958.832L368.217 944.598Z" fill="#14A76C"/>
<path d="M821.372 1156.12L804.428 1159L798.393 1121.01L803.625 1119.31L813.923 1117.01L825.172 1114.41L837.527 1111.97L851.321 1107.49L869.871 1101.46L886.056 1094.63L911.611 1082.64L929.525 1118.35L915.076 1125.68L896.514 1133.29L877.321 1140.57L858.77 1146.6L837.533 1152.45L821.372 1156.12Z" fill="#14A76C"/>
<path d="M1050.48 1027.51L1038.53 1039.72L1011.4 1012.64L1014.61 1008.21L1021.55 1000.35L1029.08 991.692L1037.59 982.518L1046.06 970.856L1057.46 955.174L1066.47 940.221L1080.01 915.653L1115.37 933.967L1108.03 948.299L1097.56 965.262L1086.38 982.334L1074.99 998.017L1061.33 1015.12L1050.48 1027.51Z" fill="#14A76C"/>
<path d="M317.777 690.222L320.277 673.567L358.277 679.445V684.834L357.277 695.12L356.277 706.386L354.777 718.632V732.838V751.941L356.277 769.085L359.777 796.516L320.277 802.394L317.777 786.719L316.277 767.126L315.277 747.043V727.939L316.277 706.386L317.777 690.222Z" fill="#14A76C"/>
<path d="M1159.92 787.861L1157.46 805.163L1120.11 799.056V793.459L1121.09 782.773L1122.07 771.069L1123.55 758.347V743.59V723.745L1122.07 705.934L1118.63 677.438L1157.46 671.332L1159.92 687.615L1161.39 707.97L1162.38 728.833V748.679L1161.39 771.069L1159.92 787.861Z" fill="#14A76C"/>
<path d="M1107.42 528.543L1115.39 543.689L1081.65 560.811L1078.43 556.378L1073.08 547.337L1067.14 537.49L1061.01 526.548L1052.52 514.861L1041.1 499.144L1029.66 485.906L1010.48 465.36L1038.38 437.699L1049.74 449.151L1062.64 464.404L1075.44 480.35L1086.86 496.067L1098.95 514.377L1107.42 528.543Z" fill="#14A76C"/>
<path d="M652.985 324.354L669.75 321.491L675.645 358.855L670.467 360.537L660.278 362.814L649.147 365.397L636.923 367.818L623.272 372.254L604.913 378.219L588.894 384.975L563.596 396.812L545.948 361.717L560.252 354.485L578.625 346.965L597.621 339.759L615.98 333.794L636.996 327.999L652.985 324.354Z" fill="#14A76C"/>
<path d="M426.701 454.4L438.652 442.133L465.358 468.93L462.135 473.366L455.186 481.257L447.652 489.955L439.134 499.171L430.636 510.866L419.209 526.594L410.147 541.576L396.522 566.183L361.591 548.198L368.979 533.848L379.506 516.85L390.724 499.737L402.151 484.009L415.839 466.842L426.701 454.4Z" fill="#14A76C"/>
<path d="M560.861 1124.79L545.465 1117.16L562.914 1082.87L568.145 1084.57L577.822 1088.77L588.45 1093.27L599.875 1098.56L613.665 1103.04L632.211 1109.07L649.318 1113.05L677.029 1118.37L670.529 1157.8L654.54 1155.23L635.055 1150.47L615.25 1145.09L596.704 1139.06L576.09 1131.32L560.861 1124.79Z" fill="#14A76C"/>
<path d="M914.245 352.703L929.64 360.334L912.191 394.62L906.96 392.921L897.283 388.725L886.655 384.22L875.23 378.931L861.44 374.45L842.894 368.424L825.787 364.443L798.076 359.119L804.576 319.699L820.565 322.265L840.05 327.019L859.856 332.403L878.401 338.429L899.016 346.178L914.245 352.703Z" fill="#14A76C"/>
<line x1="1443.73" y1="852.132" x2="33.1029" y2="628.711" stroke="white" stroke-width="4.02314"/>
<line x1="1374.09" y1="1064.42" x2="101.546" y2="416.03" stroke="white" stroke-width="4.02314"/>
<line x1="1242.26" y1="1244.81" x2="232.361" y2="234.907" stroke="white" stroke-width="4.02314"/>
<line x1="1061.14" y1="1375.62" x2="412.743" y2="103.076" stroke="white" stroke-width="4.02314"/>
<line x1="848.456" y1="1444.07" x2="625.035" y2="33.4364" stroke="white" stroke-width="4.02314"/>
<line x1="627.046" y1="1443.44" x2="850.468" y2="32.807" stroke="white" stroke-width="4.02314"/>
<line x1="412.743" y1="1373.8" x2="1061.14" y2="101.249" stroke="white" stroke-width="4.02314"/>
<line x1="232.361" y1="1241.96" x2="1242.26" y2="232.062" stroke="white" stroke-width="4.02314"/>
<line x1="101.546" y1="1060.84" x2="1374.09" y2="412.447" stroke="white" stroke-width="4.02314"/>
<line x1="33.103" y1="848.161" x2="1443.73" y2="624.739" stroke="white" stroke-width="4.02314"/>
<circle cx="739.738" cy="739.441" r="685.945" stroke="white" stroke-width="4.02314"/>
<circle cx="739.738" cy="739.441" r="645.713" stroke="white" stroke-width="4.02314"/>
<circle cx="739.738" cy="739.441" r="424.441" stroke="white" stroke-width="4.02314"/>
<circle cx="739.738" cy="739.441" r="384.209" stroke="white" stroke-width="4.02314"/>
<circle cx="739.738" cy="739.442" r="66.3817" fill="#14A76C" stroke="white" stroke-width="4.02314"/>
<circle cx="739.738" cy="739.441" r="26.1504" fill="#EE5622" stroke="white" stroke-width="4.02314"/>
<mask id="mask0" mask-type="alpha" maskUnits="userSpaceOnUse" x="0" y="0" width="1480" height="1479">
<path d="M129.578 430.121L163.418 446.901L162.376 448.935L161.856 449.952L160.815 451.986L159.773 454.019L149.361 475.884L143.114 490.121L133.742 513.511L126.454 533.85L115 571.477L109.794 591.816L103.547 621.308L100.423 640.121L62.4177 633.511L66.0621 611.138L71.7889 584.189L80.1188 552.155L88.4487 525.714L100.423 494.189L112.918 463.68L129.578 430.121Z" fill="#EE5622"/>
<path d="M62.7511 843.011L99.9913 836.696L100.344 838.953L100.521 840.082L100.874 842.339L101.227 844.597L105.655 868.406L108.969 883.596L115.136 908.027L121.194 928.766L134.045 965.939L141.788 985.454L154.068 1012.98L162.599 1030.04L127.967 1047.03L117.765 1026.79L106.558 1001.62L94.4679 970.81L85.6655 944.523L76.8226 911.98L68.9988 879.954L62.7511 843.011Z" fill="#EE5622"/>
<path d="M252.171 1221.3L278.587 1194.31L280.199 1195.93L281.006 1196.73L282.618 1198.35L284.231 1199.97L301.808 1216.63L313.418 1226.97L332.767 1243.11L349.858 1256.33L382.104 1278.85L399.839 1290.09L425.956 1305.14L442.884 1313.93L424.853 1348.03L404.701 1337.65L380.841 1323.87L352.949 1306.05L330.376 1289.96L304.094 1268.83L278.94 1247.52L252.171 1221.3Z" fill="#EE5622"/>
<path d="M1050.79 1349.9L1033.28 1316.44L1035.32 1315.41L1036.34 1314.89L1038.38 1313.86L1040.41 1312.82L1061.69 1301.25L1075.11 1293.41L1096.44 1279.99L1114.29 1267.82L1145.68 1244.11L1161.84 1230.72L1184.23 1210.53L1197.82 1197.15L1224.68 1224.83L1208.58 1240.79L1188.11 1259.23L1162.54 1280.25L1140.26 1296.74L1112.04 1315.21L1084 1332.55L1050.79 1349.9Z" fill="#EE5622"/>
<path d="M631.62 1415.28L637.113 1378.4L639.346 1378.76L640.463 1378.93L642.696 1379.29L644.929 1379.64L668.7 1382.72L684.016 1384.22L708.906 1385.85L730.287 1386.46L769.224 1385.69L789.97 1384.35L819.656 1381.18L838.331 1378.35L843.688 1416.03L821.502 1419.46L794.369 1422.34L761.654 1424.33L734.207 1424.6L700.86 1423.02L668.312 1420.64L631.62 1415.28Z" fill="#EE5622"/>
<path d="M1348.26 1053.12L1314.42 1036.34L1315.46 1034.31L1315.98 1033.29L1317.02 1031.26L1318.06 1029.22L1328.47 1007.36L1334.72 993.121L1344.09 969.731L1351.38 949.392L1362.84 911.765L1368.04 891.426L1374.29 861.935L1377.41 843.121L1415.42 849.731L1411.77 872.104L1406.05 899.053L1397.72 931.087L1389.39 957.528L1377.41 989.053L1364.92 1019.56L1348.26 1053.12Z" fill="#EE5622"/>
<path d="M1415.23 629.49L1377.99 635.805L1377.64 633.548L1377.46 632.419L1377.11 630.162L1376.75 627.904L1372.33 604.095L1369.01 588.905L1362.85 564.474L1356.79 543.735L1343.94 506.562L1336.19 487.047L1323.91 459.516L1315.38 442.459L1350.01 425.468L1360.22 445.71L1371.42 470.879L1383.51 501.691L1392.32 527.978L1401.16 560.521L1408.98 592.547L1415.23 629.49Z" fill="#EE5622"/>
<path d="M1220.61 252.815L1194.55 279.226L1192.95 277.633L1192.15 276.837L1190.55 275.243L1188.95 273.65L1171.5 257.251L1159.99 247.07L1140.79 231.175L1123.84 218.155L1091.86 195.961L1074.28 184.882L1048.39 170.032L1031.62 161.361L1049.36 127.955L1069.33 138.2L1092.98 151.787L1120.63 169.357L1143.01 185.216L1169.08 206.027L1194.04 227.013L1220.61 252.815Z" fill="#EE5622"/>
<path d="M844.801 63.4404L839.21 100.598L836.954 100.244L835.826 100.066L833.57 99.7121L831.314 99.3577L807.299 96.2864L791.825 94.7898L766.678 93.174L745.074 92.5815L705.731 93.4033L684.767 94.7779L654.768 98.0006L635.896 100.87L630.525 62.925L652.947 59.4457L680.365 56.5178L713.423 54.4757L741.156 54.1641L774.849 55.7218L807.734 58.0859L844.801 63.4404Z" fill="#EE5622"/>
<path d="M426.733 131.871L444.453 165.343L442.419 166.362L441.402 166.872L439.368 167.891L437.334 168.91L416.104 180.327L402.714 188.076L381.44 201.333L363.641 213.369L332.363 236.836L316.257 250.102L293.961 270.107L280.439 283.378L253.397 255.616L269.42 239.793L289.808 221.523L315.281 200.705L337.489 184.381L365.628 166.125L393.597 148.993L426.733 131.871Z" fill="#EE5622"/>
<path d="M353.578 563.778L361.209 548.383L395.495 565.832L393.795 571.063L389.6 580.74L385.095 591.368L379.806 602.793L375.325 616.583L369.299 635.129L365.318 652.236L359.994 679.947L320.573 673.447L323.14 657.457L327.894 637.973L333.277 618.167L339.303 599.622L347.053 579.007L353.578 563.778Z" fill="#EE5622"/>
<path d="M323.458 819.949L320.582 803.008L358.576 796.972L360.276 802.203L362.569 812.498L365.172 823.744L367.608 836.096L372.089 849.886L378.115 868.432L384.949 884.612L396.93 910.16L361.218 928.072L353.896 913.628L346.289 895.07L339.003 875.882L332.977 857.337L327.13 836.105L323.458 819.949Z" fill="#EE5622"/>
<path d="M449.803 1048.96L437.516 1036.94L464.707 1009.73L469.158 1012.96L477.067 1019.94L485.785 1027.51L495.019 1036.08L506.753 1044.6L522.533 1056.07L537.576 1065.14L562.292 1078.77L543.93 1114.26L529.513 1106.87L512.446 1096.33L495.269 1085.08L479.489 1073.62L462.274 1059.87L449.803 1048.96Z" fill="#EE5622"/>
<path d="M688.936 1161.5L671.932 1159L677.933 1121H683.435L693.938 1122L705.441 1123L717.944 1124.5H732.448H751.953L769.458 1123L797.465 1119.5L803.467 1159L787.462 1161.5L767.457 1163L746.952 1164H727.446L705.441 1163L688.936 1161.5Z" fill="#EE5622"/>
<path d="M945.535 1110.84L930.208 1118.9L912.84 1084.71L917.325 1081.45L926.473 1076.03L936.436 1070.03L947.508 1063.83L959.331 1055.24L975.232 1043.69L988.623 1032.11L1009.4 1012.7L1037.44 1040.99L1025.85 1052.49L1010.42 1065.55L994.294 1078.5L978.393 1090.05L959.868 1102.28L945.535 1110.84Z" fill="#EE5622"/>
<path d="M1125.51 917.638L1117.88 933.033L1083.59 915.584L1085.29 910.353L1089.49 900.676L1093.99 890.048L1099.28 878.623L1103.76 864.833L1109.79 846.287L1113.77 829.18L1119.09 801.469L1158.52 807.969L1155.95 823.959L1151.19 843.443L1145.81 863.249L1139.79 881.794L1132.04 902.409L1125.51 917.638Z" fill="#EE5622"/>
<path d="M1153.94 652.633L1156.83 669.5L1119.46 675.359L1117.76 670.147L1115.47 659.894L1112.86 648.694L1110.41 636.395L1105.95 622.656L1099.95 604.179L1093.16 588.053L1081.26 562.586L1116.35 544.901L1123.61 559.302L1131.17 577.797L1138.42 596.917L1144.42 615.394L1150.26 636.543L1153.94 652.633Z" fill="#EE5622"/>
<path d="M1023.48 425.699L1035.73 437.635L1008.94 464.346L1004.51 461.128L996.633 454.188L987.948 446.663L978.747 438.156L967.068 429.671L951.363 418.26L936.401 409.212L911.826 395.611L929.818 360.684L944.15 368.059L961.125 378.57L978.214 389.77L993.92 401.181L1011.06 414.851L1023.48 425.699Z" fill="#EE5622"/>
<path d="M786.949 318.533L803.983 320.991L797.971 358.348L792.46 358.348L781.939 357.365L770.416 356.382L757.891 354.907L743.361 354.907L723.822 354.907L706.287 356.382L678.23 359.822L672.218 320.991L688.25 318.533L708.291 317.059L728.832 316.076L748.371 316.076L770.416 317.059L786.949 318.533Z" fill="#EE5622"/>
<path d="M529.309 371.429L544.34 363.545L561.503 397.252L557.107 400.445L548.137 405.747L538.368 411.63L527.51 417.695L515.921 426.115L500.336 437.439L487.216 448.794L466.86 467.837L439.24 439.905L450.583 428.626L465.701 415.82L481.508 403.12L497.093 391.797L515.254 379.817L529.309 371.429Z" fill="#EE5622"/>
<path d="M63.4479 632.508L100.556 637.936L100.196 640.172L100.015 641.291L99.6543 643.527L99.2935 645.764L96.1525 669.568L94.6104 684.904L92.9203 709.826L92.2631 731.234L92.9657 770.214L94.2759 790.982L97.4054 820.696L100.216 839.387L62.2869 844.823L58.8783 822.617L56.0355 795.459L54.0949 762.71L53.8671 735.232L55.525 701.843L57.9862 669.252L63.4479 632.508Z" fill="#14A76C"/>
<path d="M128.631 1047.32L161.842 1029.89L162.865 1031.92L163.376 1032.93L164.399 1034.95L165.422 1036.97L176.872 1058.07L184.639 1071.39L197.921 1092.54L209.972 1110.25L233.453 1141.37L246.72 1157.4L266.717 1179.6L279.977 1193.07L252.487 1219.76L236.677 1203.8L218.414 1183.5L197.595 1158.15L181.259 1136.05L162.975 1108.07L145.81 1080.25L128.631 1047.32Z" fill="#14A76C"/>
<path d="M1223.39 1225.44L1196.59 1199.14L1198.2 1197.53L1199 1196.73L1200.61 1195.12L1202.22 1193.51L1218.8 1175.98L1229.08 1164.39L1245.14 1145.09L1258.29 1128.05L1280.71 1095.89L1291.89 1078.2L1306.88 1052.15L1315.63 1035.28L1349.49 1053.21L1339.16 1073.3L1325.45 1097.1L1307.71 1124.91L1291.69 1147.43L1270.67 1173.64L1249.47 1198.73L1223.39 1225.44Z" fill="#14A76C"/>
<path d="M844.083 1416.6L837.634 1379.21L839.893 1378.87L841.022 1378.69L843.281 1378.35L845.54 1378L869.359 1373.64L884.554 1370.37L908.989 1364.26L929.729 1358.26L966.898 1345.49L986.407 1337.79L1013.93 1325.56L1030.97 1317.06L1048.1 1351.86L1027.87 1362.03L1002.71 1373.19L971.909 1385.21L945.624 1393.95L913.077 1402.71L881.043 1410.46L844.083 1416.6Z" fill="#14A76C"/>
<path d="M425.685 1348.47L442.598 1314.29L444.648 1315.35L445.673 1315.87L447.723 1316.92L449.773 1317.97L471.811 1328.49L486.161 1334.8L509.736 1344.27L530.237 1351.63L568.162 1363.19L588.662 1368.45L618.388 1374.76L637.351 1377.92L630.688 1416.3L608.138 1412.62L580.975 1406.84L548.687 1398.42L522.036 1390.01L490.261 1377.92L459.511 1365.3L425.685 1348.47Z" fill="#14A76C"/>
<path d="M1415.79 846.028L1378.6 840.331L1378.95 838.062L1379.12 836.928L1379.47 834.659L1379.82 832.389L1382.85 808.236L1384.32 792.671L1385.88 767.375L1386.44 745.642L1385.54 706.059L1384.12 684.966L1380.84 654.78L1377.93 635.787L1415.89 630.457L1419.42 653.021L1422.4 680.61L1424.51 713.873L1424.87 741.774L1423.38 775.667L1421.08 808.746L1415.79 846.028Z" fill="#14A76C"/>
<path d="M1348.82 423.713L1315.09 444.023L1314.04 441.987L1313.51 440.969L1312.45 438.932L1311.4 436.896L1299.61 415.692L1291.61 402.35L1277.95 381.212L1265.56 363.584L1241.45 332.746L1227.84 316.939L1207.33 295.156L1193.74 282.014L1221.58 252.435L1237.78 268.002L1256.51 287.923L1277.88 312.933L1294.66 334.849L1313.46 362.765L1331.11 390.574L1348.82 423.713Z" fill="#14A76C"/>
<path d="M1046.54 125.549L1031.45 161.562L1029.43 160.541L1028.42 160.03L1026.4 159.009L1024.39 157.987L1002.72 147.825L988.638 141.766L965.529 132.746L945.466 125.803L908.424 115.086L888.437 110.325L859.503 104.784L841.077 102.152L846.121 62.1226L868.031 65.179L894.47 70.261L925.954 77.8965L951.995 85.7221L983.117 97.1918L1013.27 109.241L1046.54 125.549Z" fill="#14A76C"/>
<path d="M627.882 62.5491L637.382 101.487L635.115 101.832L633.981 102.004L631.715 102.349L629.448 102.693L605.598 107.062L590.422 110.36L566.084 116.537L545.492 122.64L508.745 135.659L489.537 143.533L462.55 156.059L445.908 164.782L425.766 128.453L445.511 118.019L470.183 106.589L500.522 94.2966L526.531 85.388L558.899 76.5038L590.825 68.6777L627.882 62.5491Z" fill="#14A76C"/>
<path d="M254.807 256.661L281.846 282.983L280.231 284.583L279.423 285.384L277.808 286.984L276.193 288.585L259.572 306.035L249.256 317.562L233.157 336.776L219.976 353.749L197.524 385.777L186.324 403.394L171.323 429.341L162.572 446.159L128.448 428.163L138.787 408.141L152.512 384.436L170.275 356.73L186.32 334.311L207.394 308.212L228.651 283.235L254.807 256.661Z" fill="#14A76C"/>
<path d="M368.217 944.598L360.244 929.371L394.514 911.891L397.748 916.341L403.112 925.426L409.065 935.32L415.2 946.317L423.726 958.051L435.19 973.831L446.693 987.111L465.987 1007.71L437.558 1035.79L426.129 1024.31L413.156 1009L400.295 993.002L388.83 977.222L376.704 958.832L368.217 944.598Z" fill="#14A76C"/>
<path d="M821.372 1156.12L804.428 1159L798.393 1121.01L803.625 1119.31L813.923 1117.01L825.172 1114.41L837.527 1111.97L851.321 1107.49L869.871 1101.46L886.056 1094.63L911.611 1082.64L929.525 1118.35L915.076 1125.68L896.514 1133.29L877.321 1140.57L858.77 1146.6L837.533 1152.45L821.372 1156.12Z" fill="#14A76C"/>
<path d="M1050.48 1027.51L1038.53 1039.72L1011.4 1012.64L1014.61 1008.21L1021.55 1000.35L1029.08 991.692L1037.59 982.518L1046.06 970.856L1057.46 955.174L1066.47 940.221L1080.01 915.653L1115.37 933.967L1108.03 948.299L1097.56 965.262L1086.38 982.334L1074.99 998.017L1061.33 1015.12L1050.48 1027.51Z" fill="#14A76C"/>
<path d="M317.777 690.222L320.277 673.567L358.277 679.445V684.834L357.277 695.12L356.277 706.386L354.777 718.632V732.838V751.941L356.277 769.085L359.777 796.516L320.277 802.394L317.777 786.719L316.277 767.126L315.277 747.043V727.939L316.277 706.386L317.777 690.222Z" fill="#14A76C"/>
<path d="M1159.92 787.861L1157.46 805.163L1120.11 799.056V793.459L1121.09 782.773L1122.07 771.069L1123.55 758.347V743.59V723.745L1122.07 705.934L1118.63 677.438L1157.46 671.332L1159.92 687.615L1161.39 707.97L1162.38 728.833V748.679L1161.39 771.069L1159.92 787.861Z" fill="#14A76C"/>
<path d="M1107.42 528.543L1115.39 543.689L1081.65 560.811L1078.43 556.378L1073.08 547.337L1067.14 537.49L1061.01 526.548L1052.52 514.861L1041.1 499.144L1029.66 485.906L1010.48 465.36L1038.38 437.699L1049.74 449.151L1062.64 464.404L1075.44 480.35L1086.86 496.067L1098.95 514.377L1107.42 528.543Z" fill="#14A76C"/>
<path d="M652.985 324.354L669.75 321.491L675.645 358.855L670.467 360.537L660.278 362.814L649.147 365.397L636.923 367.818L623.272 372.254L604.913 378.219L588.894 384.975L563.596 396.812L545.948 361.717L560.252 354.485L578.625 346.965L597.621 339.759L615.98 333.794L636.996 327.999L652.985 324.354Z" fill="#14A76C"/>
<path d="M426.701 454.4L438.652 442.133L465.358 468.93L462.135 473.366L455.186 481.257L447.652 489.955L439.134 499.171L430.636 510.866L419.209 526.594L410.147 541.576L396.522 566.183L361.591 548.198L368.979 533.848L379.506 516.85L390.724 499.737L402.151 484.009L415.839 466.842L426.701 454.4Z" fill="#14A76C"/>
<path d="M560.861 1124.79L545.465 1117.16L562.914 1082.87L568.145 1084.57L577.822 1088.77L588.45 1093.27L599.875 1098.56L613.665 1103.04L632.211 1109.07L649.318 1113.05L677.029 1118.37L670.529 1157.8L654.54 1155.23L635.055 1150.47L615.25 1145.09L596.704 1139.06L576.09 1131.32L560.861 1124.79Z" fill="#14A76C"/>
<path d="M914.245 352.703L929.64 360.334L912.191 394.62L906.96 392.921L897.283 388.725L886.655 384.22L875.23 378.931L861.44 374.45L842.894 368.424L825.787 364.443L798.076 359.119L804.576 319.699L820.565 322.265L840.05 327.019L859.856 332.403L878.401 338.429L899.016 346.178L914.245 352.703Z" fill="#14A76C"/>
<line x1="1443.73" y1="852.132" x2="33.1029" y2="628.711" stroke="white" stroke-width="4.02314"/>
<line x1="1374.09" y1="1064.42" x2="101.546" y2="416.03" stroke="white" stroke-width="4.02314"/>
<line x1="1242.26" y1="1244.81" x2="232.361" y2="234.907" stroke="white" stroke-width="4.02314"/>
<line x1="1061.14" y1="1375.62" x2="412.743" y2="103.076" stroke="white" stroke-width="4.02314"/>
<line x1="848.456" y1="1444.07" x2="625.035" y2="33.4364" stroke="white" stroke-width="4.02314"/>
<line x1="627.046" y1="1443.44" x2="850.468" y2="32.807" stroke="white" stroke-width="4.02314"/>
<line x1="412.743" y1="1373.8" x2="1061.14" y2="101.249" stroke="white" stroke-width="4.02314"/>
<line x1="232.361" y1="1241.96" x2="1242.26" y2="232.062" stroke="white" stroke-width="4.02314"/>
<line x1="101.546" y1="1060.84" x2="1374.09" y2="412.447" stroke="white" stroke-width="4.02314"/>
<line x1="33.103" y1="848.161" x2="1443.73" y2="624.739" stroke="white" stroke-width="4.02314"/>
<circle cx="739.738" cy="739.441" r="685.945" stroke="white" stroke-width="4.02314"/>
<circle cx="739.738" cy="739.441" r="645.713" stroke="white" stroke-width="4.02314"/>
<circle cx="739.738" cy="739.441" r="424.441" stroke="white" stroke-width="4.02314"/>
<circle cx="739.738" cy="739.441" r="384.209" stroke="white" stroke-width="4.02314"/>
<circle cx="739.738" cy="739.442" r="66.3817" fill="#14A76C" stroke="white" stroke-width="4.02314"/>
<circle cx="739.738" cy="739.441" r="26.1504" fill="#EE5622" stroke="white" stroke-width="4.02314"/>
</mask>
<g mask="url(#mask0)">
<rect x="33" y="33" width="1411" height="1411" fill="#303030" fill-opacity="0.4"/>
</g>
</svg>
