<svg width="16" height="17" viewBox="0 0 16 17" fill="none" xmlns="http://www.w3.org/2000/svg">
<path fill-rule="evenodd" clip-rule="evenodd" d="M3.72007 4.22C3.86069 4.07955 4.05132 4.00066 4.25007 4.00066C4.44882 4.00066 4.63944 4.07955 4.78007 4.22L8.00007 7.44L11.2201 4.22C11.2888 4.14631 11.3716 4.08721 11.4636 4.04622C11.5556 4.00523 11.6549 3.98319 11.7556 3.98141C11.8563 3.97963 11.9563 3.99816 12.0497 4.03588C12.1431 4.0736 12.2279 4.12974 12.2991 4.20096C12.3704 4.27218 12.4265 4.35702 12.4642 4.4504C12.5019 4.54379 12.5205 4.64382 12.5187 4.74452C12.5169 4.84523 12.4949 4.94454 12.4539 5.03654C12.4129 5.12854 12.3538 5.21134 12.2801 5.28L9.06007 8.5L12.2801 11.72C12.3538 11.7887 12.4129 11.8715 12.4539 11.9635C12.4949 12.0555 12.5169 12.1548 12.5187 12.2555C12.5205 12.3562 12.5019 12.4562 12.4642 12.5496C12.4265 12.643 12.3704 12.7278 12.2991 12.799C12.2279 12.8703 12.1431 12.9264 12.0497 12.9641C11.9563 13.0018 11.8563 13.0204 11.7556 13.0186C11.6549 13.0168 11.5556 12.9948 11.4636 12.9538C11.3716 12.9128 11.2888 12.8537 11.2201 12.78L8.00007 9.56L4.78007 12.78C4.63789 12.9125 4.44984 12.9846 4.25554 12.9812C4.06124 12.9777 3.87586 12.899 3.73844 12.7616C3.60103 12.6242 3.52232 12.4388 3.51889 12.2445C3.51546 12.0502 3.58759 11.8622 3.72007 11.72L6.94007 8.5L3.72007 5.28C3.57962 5.13938 3.50073 4.94875 3.50073 4.75C3.50073 4.55125 3.57962 4.36063 3.72007 4.22Z" fill="#EE5622"/>
</svg>
